# xmcd
#
# Track frame offsets:
#	150
#	23086
#	37448
#	53137
#	71668
#	81125
#	104269
#	121454
#	135876
#	149702
#	165434
#	179093
#	193632
#	207855
#	220261
#	237974
#	251111
#	265170
#	282406
#	298579
#	316689
#
# Disc length: 4455 seconds
#
# Revision: 1
# Processed by: cddbd v1.5.2PL0 Copyright (c) Steve Scherf et al.
# Submitted via: dBpowerAMP V4.0
#
DISCID=46116515
DTITLE=Various Artist - Hott Urban Volume 31 Can
DYEAR=2017
DGENRE=Urban
TTITLE0=Eminem ft. Beyonce - Walk On Water
TTITLE1=Future and Young Thug - Patek Water
TTITLE2=Khalid - Saved
TTITLE3=French Montana - Famous
TTITLE4=Lil Pump - Gucci Gang
TTITLE5=Migos ft. Nicki Minaj And Cardi B - Motorsport
TTITLE6=Remy Ma ft. Lil' Kim - Wake Me Up
TTITLE7=Wiz Khalifa - Letterman
TTITLE8=Russ - Wife You Up
TTITLE9=Ball Greezy - Nice and Slow
TTITLE10=Lecrae - Broke
TTITLE11=Rich The Kid ft. Kendrick Lamar - New Freezer
TTITLE12=N.E.R.D. and Rihanna - Lemon
TTITLE13=TY Dolla $ign ft. YG - Ex
TTITLE14=Playboi Carti ft. Lil Uzi Vert - Wokeuplikethis*
TTITLE15=Jacquees ft. Dej Loaf - At The Club
TTITLE16=Tru Life ft. Future - Last Night
TTITLE17=Big Sean and Metro Boomin ft. 21 Savage - Pull Up N Wreck
TTITLE18=Kodak Black ft. XXXtentacion - Roll In Peace
TTITLE19=Toni Braxton - Deadwood
TTITLE20=Major. - Honest
EXTD=
EXTT0=
EXTT1=
EXTT2=
EXTT3=
EXTT4=
EXTT5=
EXTT6=
EXTT7=
EXTT8=
EXTT9=
EXTT10=
EXTT11=
EXTT12=
EXTT13=
EXTT14=
EXTT15=
EXTT16=
EXTT17=
EXTT18=
EXTT19=
EXTT20=
PLAYORDER=
